<svg width="154" height="136" viewBox="0 0 154 136" fill="none" xmlns="http://www.w3.org/2000/svg">
<path d="M20.9181 97.6078C27.7328 107.563 38.0193 115.979 49.9173 116.974C57.0495 117.572 65.5344 116.724 72.2968 114.333C81.2988 111.156 88.7528 104.656 95.1896 97.5761C101.626 90.4965 107.286 82.7 114.059 75.9498C116.33 73.6925 118.721 71.5546 121.298 69.6631C124.841 67.0606 128.772 64.9047 131.745 61.6601C134.825 58.3025 136.732 53.8216 136.802 49.2222C136.874 44.6269 135.054 39.9678 131.729 36.7958C130.392 35.52 128.86 34.5092 127.225 33.6792C133.272 36.6228 136.443 39.9224 138.831 44.5651C141.214 49.2087 141.936 54.8214 140.186 59.7047C138.126 65.4516 133.096 69.4516 128.555 73.4781C121.74 79.5269 115.56 86.298 110.153 93.6503C106.603 98.4668 103.372 103.552 99.2854 107.912C92.9615 114.663 84.7977 119.439 76.236 122.885C72.6804 124.313 69.012 125.538 65.2023 126.016C61.8745 126.436 58.4777 126.28 55.1652 125.686C39.8121 122.925 28.0491 111.26 19.3398 95.2117L19.3559 95.2082C19.858 96.0192 20.3784 96.8178 20.9181 97.6078Z" fill="#F0ECD9"/>
<path opacity="0.3" d="M20.9201 97.6076C27.7347 107.562 38.0213 115.979 49.9193 116.974C57.0515 117.572 65.5363 116.724 72.2988 114.333C81.3008 111.156 88.7547 104.655 95.1916 97.5758C101.628 90.4963 107.288 82.6998 114.06 75.9496C116.332 73.6923 118.723 71.5544 121.3 69.6629C124.843 67.0604 128.774 64.9045 131.747 61.6598C134.827 58.3023 136.734 53.8214 136.804 49.222C136.876 44.6266 135.056 39.9676 131.731 36.7955C130.394 35.5198 128.862 34.5089 127.226 33.6789C133.274 36.6226 136.445 39.9222 138.833 44.5649C141.216 49.2084 141.938 54.8212 140.188 59.7044C138.128 65.4514 133.098 69.4513 128.557 73.4778C121.742 79.5267 115.562 86.2978 110.155 93.65C106.605 98.4666 103.374 103.552 99.2874 107.912C92.9635 114.663 84.7996 119.439 76.238 122.884C72.6823 124.312 69.014 125.538 65.2043 126.016C61.8765 126.435 58.4797 126.279 55.1672 125.686C39.814 122.925 28.051 111.26 19.3417 95.2115L19.3578 95.208C19.8599 96.019 20.3804 96.8175 20.9201 97.6076Z" fill="#282D35"/>
<path d="M48.6946 58.8786C50.9652 61.1124 50.8868 65.2812 48.537 67.3829C45.0946 70.46 37.3458 70.7255 36.5377 64.8417C36.007 60.9928 38.9604 57.6763 42.3874 56.9323C43.8107 56.6234 45.316 56.7574 46.6906 57.4789C47.4141 57.8595 48.1099 58.3058 48.6946 58.8786Z" fill="#D4D0C7"/>
<path d="M54.364 55.7764C57.1623 59.6496 57.7303 65.0595 55.6909 69.3384C53.6565 73.6205 49.057 76.545 44.3236 76.472C39.059 76.3863 34.3464 74.7059 32.9755 69.4105C31.5583 63.9077 29.9739 58.697 34.4275 54.3079C40.1213 48.6991 49.4798 49.0221 54.364 55.7764ZM48.5382 67.3689C50.8876 65.2692 50.9659 61.1045 48.6956 58.8731C48.1111 58.3008 47.4153 57.8549 46.692 57.4747C45.3177 56.754 43.8126 56.6201 42.3896 56.9288C38.9632 57.6721 36.0103 60.9854 36.541 64.8304C37.349 70.7083 45.0964 70.443 48.5382 67.3689Z" fill="#F0ECD9"/>
<path d="M130.172 46.6444C131.398 52.0645 128.115 58.1782 124.141 61.556C120.082 65.0079 115.155 67.1476 110.9 70.3085C101.218 77.5007 95.7671 89.1393 86.9001 97.3302C81.8923 101.95 75.9666 105.735 69.5718 108.1C62.8402 110.585 55.7126 110.612 48.6575 109.182C43.6615 108.169 38.7976 106.211 34.7246 103.099C34.3214 102.789 33.9245 102.469 33.5378 102.138C26.922 96.5172 22.0924 88.5154 19.442 80.2922C17.1285 73.1246 16.3837 65.445 17.4182 58.0072C18.3719 51.1171 21.8562 45.4301 27.3659 41.2397C37.1465 33.8079 50.6402 31.136 62.7329 31.2826C65.6886 31.3201 68.6386 31.5597 71.5824 31.8092C87.434 33.1484 103.29 34.7347 118.953 37.637C120.709 37.965 122.487 38.3141 124.108 39.0777C127.122 40.4963 129.431 43.3766 130.172 46.6444ZM55.7081 69.058C57.7489 64.7665 57.1812 59.3401 54.382 55.4548C49.4962 48.6795 40.1334 48.3543 34.4363 53.9792C29.9802 58.381 31.5648 63.6078 32.9821 69.1274C34.353 74.439 39.0677 76.1251 44.3347 76.2117C49.0703 76.2856 53.6723 73.3528 55.7081 69.058Z" fill="#D64B4B"/>
<path d="M131.738 37.0512C135.062 40.2178 136.882 44.8692 136.811 49.4573C136.741 54.0494 134.835 58.5234 131.756 61.8761C128.784 65.1159 124.854 67.2689 121.312 69.8677C118.735 71.7566 116.345 73.8913 114.074 76.1454C107.304 82.8857 101.646 90.6706 95.2108 97.7397C88.7759 104.809 81.3239 111.3 72.3239 114.473C65.5629 116.861 57.0796 117.709 49.9487 117.113C38.0527 116.121 27.7672 107.719 20.9527 97.7807C20.4131 96.992 19.8926 96.1948 19.3896 95.381C11.9788 83.4529 8.44454 68.8876 11.2378 55.2209C12.3067 49.9886 14.3159 44.8769 17.6874 40.7726C19.8949 38.0835 22.6388 35.8848 25.5249 33.9628C28.9958 31.6488 32.71 29.7051 36.5824 28.1671C42.6313 25.7716 48.818 24.4102 55.2272 23.4962C61.0399 22.6948 67.1356 23.1609 72.9935 23.4522C74.7981 23.5429 76.6001 23.6599 78.4067 23.7973C92.4266 24.8707 106.392 27.3662 119.932 31.236C122.416 31.9442 124.933 32.7648 127.234 33.9401C128.869 34.7686 130.401 35.7776 131.738 37.0512ZM124.138 61.5612C128.112 58.185 131.395 52.0742 130.169 46.6569C129.427 43.3907 127.119 40.512 124.105 39.0943C122.484 38.3311 120.706 37.9823 118.95 37.6544C103.288 34.7542 87.4331 33.1693 71.5825 31.8313C68.6388 31.5821 65.689 31.3427 62.7335 31.3054C50.6415 31.1592 37.1487 33.8303 27.369 41.2587C21.8598 45.4471 18.3758 51.1315 17.4224 58.0181C16.3882 65.4522 17.1331 73.1279 19.4467 80.2918C22.0972 88.5107 26.9267 96.5083 33.5423 102.126C33.9289 102.457 34.3259 102.777 34.7291 103.086C38.8019 106.197 43.6656 108.153 48.6612 109.166C55.7159 110.595 62.8431 110.567 69.5742 108.084C75.9685 105.72 81.8937 101.937 86.9011 97.3187C95.7673 89.1316 101.217 77.4987 110.898 70.3098C115.153 67.1503 120.08 65.0115 124.138 61.5612Z" fill="#F0ECD9"/>
<path d="M127.234 33.9401C124.933 32.7648 122.416 31.9442 119.932 31.236C106.392 27.3662 92.4266 24.8707 78.4067 23.7973C76.6001 23.6599 74.7981 23.5429 72.9935 23.4522C67.1356 23.1609 61.0399 22.6948 55.2272 23.4962C48.818 24.4102 42.6313 25.7716 36.5824 28.1671C32.71 29.7051 28.9958 31.6488 25.5249 33.9628C22.6388 35.8848 19.8949 38.0835 17.6874 40.7726C14.3159 44.8769 12.3067 49.9886 11.2378 55.2209C8.44454 68.8876 11.9788 83.4529 19.3896 95.381C19.8926 96.1948 20.4131 96.992 20.9527 97.7807C27.7672 107.719 38.0527 116.121 49.9487 117.113C57.0796 117.709 65.5629 116.861 72.3239 114.473C81.3239 111.3 88.7759 104.809 95.2108 97.7397C101.646 90.6706 107.304 82.8857 114.074 76.1454C116.345 73.8913 118.735 71.7566 121.312 69.8677C124.854 67.2689 128.784 65.1159 131.756 61.8761C134.835 58.5234 136.741 54.0494 136.811 49.4573C136.882 44.8692 135.062 40.2178 131.738 37.0512C130.401 35.7776 128.869 34.7686 127.234 33.9401Z" stroke="#282D35" stroke-miterlimit="10"/>
<path d="M33.5378 102.138C33.9245 102.469 34.3214 102.789 34.7246 103.099C38.7976 106.211 43.6615 108.169 48.6575 109.182C55.7126 110.612 62.8402 110.585 69.5718 108.1C75.9666 105.735 81.8923 101.95 86.9001 97.3302C95.7671 89.1393 101.218 77.5007 110.9 70.3085C115.155 67.1476 120.082 65.0079 124.141 61.556C128.115 58.1782 131.398 52.0645 130.172 46.6444C129.431 43.3766 127.122 40.4963 124.108 39.0777C122.487 38.3141 120.709 37.965 118.953 37.637C103.29 34.7347 87.434 33.1484 71.5824 31.8092C68.6386 31.5597 65.6886 31.3201 62.7329 31.2826C50.6402 31.136 37.1465 33.8079 27.3659 41.2397C21.8562 45.4301 18.3719 51.1171 17.4182 58.0072C16.3837 65.445 17.1285 73.1246 19.442 80.2922C22.0924 88.5154 26.922 96.5172 33.5378 102.138Z" stroke="#282D35" stroke-miterlimit="10"/>
<path d="M44.3236 76.472C49.057 76.545 53.6565 73.6205 55.6909 69.3384C57.7303 65.0595 57.1623 59.6496 54.364 55.7764C49.4798 49.0221 40.1213 48.6991 34.4275 54.3079C29.9739 58.697 31.5583 63.9077 32.9755 69.4105C34.3464 74.7059 39.059 76.3863 44.3236 76.472Z" stroke="#282D35" stroke-miterlimit="10"/>
<path d="M48.537 67.3829C50.8868 65.2812 50.9652 61.1124 48.6946 58.8786C48.1099 58.3058 47.4141 57.8595 46.6906 57.4789C45.316 56.7574 43.8107 56.6234 42.3874 56.9323C38.9604 57.6763 36.007 60.9928 36.5377 64.8417C37.3458 70.7255 45.0946 70.46 48.537 67.3829Z" stroke="#282D35" stroke-miterlimit="10"/>
<path d="M19.3407 95.2116C28.05 111.26 39.813 122.925 55.1661 125.686C58.4786 126.28 61.8754 126.435 65.2032 126.016C69.0129 125.538 72.6813 124.313 76.2369 122.884C84.7986 119.439 92.9624 114.663 99.2863 107.912C103.373 103.552 106.604 98.4668 110.154 93.6502C115.561 86.2979 121.741 79.5268 128.556 73.478C133.097 69.4515 138.127 65.4516 140.187 59.7046C141.937 54.8213 141.215 49.2086 138.832 44.565C136.444 39.9223 133.273 36.6228 127.225 33.6751" stroke="#282D35" stroke-miterlimit="10"/>
<path d="M45.3169 36.6742C45.5394 37.6902 45.7257 38.5446 45.3792 39.5312C45.1313 40.2371 45.3926 40.9639 45.3874 41.685" stroke="#282D35" stroke-linecap="round"/>
<path d="M45.1786 46.0184C45.407 46.6376 45.1816 47.4885 45.0924 48.1143" stroke="#282D35" stroke-linecap="round"/>
<path d="M43.2993 79.7265C43.9603 81.2588 44.2419 82.8179 44.3469 84.4679C44.3884 85.119 44.1917 86.1297 44.5283 86.6999" stroke="#282D35" stroke-linecap="round"/>
<path d="M46.5569 93.8039C46.8053 94.4045 47.5253 95.451 47.4638 96.1556C47.4422 96.4029 47.4157 96.6243 47.4725 96.8723C47.7239 97.9702 47.6793 99.1029 47.8224 100.228C47.9242 101.029 48.1374 101.831 48.1633 102.64C48.1899 103.475 48.168 104.298 48.3566 105.119C48.5007 105.746 48.7134 106.221 49.0395 106.774" stroke="#282D35" stroke-linecap="round"/>
<path d="M59.3295 37.1838C59.6611 39.6906 59.2172 42.2748 59.6459 44.7626C59.8729 46.0793 59.5017 47.5301 59.5423 48.867C59.5976 50.6883 59.6179 52.4262 59.4867 54.2529C59.4243 55.1219 59.3924 55.5849 59.8072 56.336C60.1519 56.9599 60.4104 57.6752 60.5269 58.3705" stroke="#282D35" stroke-linecap="round"/>
<path d="M61.3074 66.2112C61.2396 67.8617 61.4576 69.5065 61.6509 71.141C61.6798 71.3851 61.681 71.89 61.7743 72.0974C62.0712 72.7578 62.0249 73.9781 61.9806 74.6889C61.8389 76.9639 61.6827 79.2708 62.4389 81.489C62.7494 82.3997 62.9501 83.3759 63.1519 84.3161C63.317 85.0853 63.3468 85.7397 63.3708 86.5326C63.412 87.8882 63.7055 89.4011 63.991 90.7311" stroke="#282D35" stroke-linecap="round"/>
<path d="M66.321 97.5353L66.8271 98.8004" stroke="#282D35" stroke-linecap="round"/>
<path d="M74.8289 38.9834C74.7449 40.3966 74.6111 41.8125 74.6423 43.2303C74.6663 44.3222 74.4796 45.4143 74.5249 46.5074C74.6077 48.5079 74.573 50.4469 74.3113 52.441C74.1712 53.5089 74.1314 54.6538 74.1869 55.729C74.2486 56.9247 74.1947 58.1363 74.4315 59.3137C74.6114 60.208 74.8727 61.2621 74.8708 62.1754C74.8688 63.1489 75.0534 64.0894 75.0671 65.0668" stroke="#282D35" stroke-linecap="round"/>
<path d="M76.3368 75.985C76.4973 76.9974 76.8529 77.9701 77.02 78.9767C77.0758 79.3128 77.1301 79.5709 77.3038 79.8651" stroke="#282D35" stroke-linecap="round"/>
<path d="M87.1638 38.0777C87.2849 39.2754 87.448 40.4049 87.316 41.5966" stroke="#282D35" stroke-linecap="round"/>
<path d="M87.9939 48.6545C88.0208 50.0151 88.0947 51.3528 87.9508 52.703C87.9025 53.1565 87.8934 53.645 87.8934 54.1003C87.8934 54.5453 87.8527 54.9983 87.8837 55.4426C87.9108 55.8314 88.0752 56.2226 88.0628 56.6066C88.0215 57.8854 88.5046 59.0808 88.7704 60.3191C89.056 61.6495 89.3148 63.0215 89.681 64.3528C89.9047 65.1664 90.0943 65.9796 90.3406 66.7837C90.6845 67.9068 90.7153 68.9791 91.2506 70.0693" stroke="#282D35" stroke-linecap="round"/>
<path d="M94.5996 78.7993L95.1262 79.6915" stroke="#282D35" stroke-linecap="round"/>
<path d="M102.439 41.3322C102.418 43.1509 102.37 44.9611 102.352 46.7771C102.342 47.8342 102.598 48.7811 102.819 49.8097C103.088 51.065 102.975 52.3571 103.31 53.6094C103.552 54.5126 104.129 55.3177 104.47 56.1861C104.992 57.5137 105.274 58.7704 106.018 60.031" stroke="#282D35" stroke-linecap="round"/>
<path d="M114.215 49.057C114.612 51.5934 115.42 54.3757 115.278 56.9709" stroke="#282D35" stroke-linecap="round"/>
<path d="M27.3087 54.3429C27.1976 56.0767 26.7711 57.4748 26.3304 59.0881C26.0609 60.0747 25.5199 61.0617 25.5608 62.1013C25.5918 62.8912 25.6157 63.6717 25.6538 64.4542C25.6819 65.0307 25.9845 65.5395 26.007 66.1136C26.0214 66.4798 26.2471 66.8512 26.3132 67.2178C26.3939 67.665 26.2518 68.1518 26.2092 68.5964C26.1062 69.6704 26.2371 70.7566 26.2258 71.8258C26.2032 73.9437 26.8713 76.0658 27.0216 78.2231" stroke="#282D35" stroke-linecap="round"/>
<path d="M29.4992 89.0049C29.7051 89.3703 30.2413 90.063 29.9766 90.4723" stroke="#282D35" stroke-linecap="round"/>
</svg>
