<svg width="184" height="83" viewBox="0 0 184 83" fill="none" xmlns="http://www.w3.org/2000/svg">
<path d="M180.532 66.2868C181.257 67.434 181.89 68.64 182.405 69.8982C182.73 70.6756 183.01 71.5317 182.822 72.3531C182.508 73.6805 181.105 74.4184 179.827 74.9068C177.318 75.8641 174.698 76.5447 172.034 76.9226L172.021 76.8239C172.181 74.5817 171.44 72.3492 171.509 70.1133C173.617 67.4049 177.128 65.8595 180.546 66.0895L180.532 66.2868Z" fill="#888783"/>
<path d="M73.7443 19.8611C73.8792 20.6443 73.7379 21.4461 73.4654 22.1883C72.1823 25.6823 68.3221 27.371 65.6813 29.9983C62.2151 33.4577 60.3714 39.0082 55.6838 40.4175C54.2091 40.8592 52.6377 40.8071 51.0991 40.7552C47.2332 40.609 43.157 40.4027 39.9103 38.3055C38.2182 37.2073 36.8763 35.6698 35.5672 34.1455C30.7827 28.5369 26.1962 22.7581 21.8207 16.8157L21.7554 16.7234C23.2717 15.7492 24.8602 14.8016 26.5278 13.8279C37.1331 7.62026 50.0829 5.45971 62.2629 5.07199C63.6966 5.02483 65.1367 5.01059 66.5699 5.09496C66.0819 8.73671 67.3948 12.5826 70.0148 15.1707C71.4623 16.6034 73.3972 17.8538 73.7443 19.8611Z" fill="#D64B4B"/>
<path d="M80.9039 17.3224C80.5751 17.3211 80.2528 17.3331 79.9436 17.3713C77.674 17.6258 77.6214 19.2633 77.2125 21.2218C75.8983 27.544 71.128 31.5577 68.3243 37.1113C68.1125 37.446 67.9005 37.8464 68.0305 38.2218C68.1605 38.6103 68.6069 38.7962 69.001 38.9029C70.7942 39.3899 72.6883 39.3313 74.542 39.5028C81.6806 40.1482 88.4442 44.1466 95.5752 43.4108C96.6278 43.303 97.7071 43.0703 98.5252 42.396C99.3367 41.7282 99.7756 40.5065 99.2796 39.5772C98.7052 38.5029 97.2791 38.3002 96.2361 37.6648C94.9504 36.8772 94.2463 35.3486 94.1734 33.8488C94.1005 32.3423 94.593 30.8577 95.2626 29.512C96.2039 27.6213 97.5663 25.6731 97.1471 23.6062C96.857 22.1647 95.7174 21.0094 94.4115 20.3401C93.0991 19.6642 91.6272 19.3956 90.1815 19.1401C87.4677 18.6562 83.8235 17.3335 80.9039 17.3224ZM9.92981 27.7402C9.78755 30.4297 9.64525 33.1258 9.50299 35.8154C9.45317 36.7623 9.41624 37.775 9.90618 38.5859C10.2785 39.199 10.895 39.6091 11.4919 39.9994C15.9451 42.9104 20.4575 45.8478 25.5209 47.4785C27.3926 48.0776 29.3504 48.4994 31.0694 49.4596C32.6638 50.347 33.9803 51.6543 35.3696 52.8435C36.2346 53.59 37.2312 54.3239 38.3753 54.3414C40.841 54.3771 41.9973 51.356 43.8581 49.7319C45.488 48.3109 47.1574 46.8834 46.01 44.406C45.4036 43.1146 44.1118 42.2151 42.7256 41.9007C41.2802 41.5795 39.7142 41.8169 38.3421 41.2658C37.0553 40.7413 36.1458 39.6066 35.2953 38.5181C31.6316 33.8475 27.9613 29.1703 24.2976 24.4997C22.4592 22.1512 21.0154 19.7977 18.0847 19.2735C19.2588 18.3769 20.4852 17.5397 21.7576 16.7224L21.823 16.8147C26.1984 22.7574 30.7849 28.5365 35.5693 34.1453C36.8783 35.6696 38.2202 37.2072 39.9124 38.3055C43.159 40.4028 47.2351 40.609 51.101 40.7553C52.6396 40.8072 54.2109 40.8592 55.6857 40.4176C60.3732 39.0082 62.2169 33.4575 65.683 29.9979C68.3238 27.3705 72.1839 25.6817 73.467 22.1875C73.7396 21.4453 73.8809 20.6434 73.7459 19.8602C73.3988 17.8529 71.464 16.6024 70.0165 15.1697C67.3966 12.5814 66.0836 8.73535 66.5716 5.09344C67.3343 5.13581 68.0968 5.20448 68.8591 5.31262C69.6938 5.42761 70.5151 5.58859 71.3363 5.7693L71.2895 5.98617C69.6993 7.34817 70.7025 9.70005 71.4328 11.255C72.2478 12.9814 73.8733 14.303 75.6329 14.9806C78.1804 15.9637 81.0085 15.8298 83.7189 15.5244C86.4359 15.219 89.1667 14.7427 91.8746 15.0819C94.7796 15.4481 97.5558 16.7807 99.665 18.8145C100.235 19.3625 100.765 19.9697 101.441 20.3866C102.084 20.7771 102.819 20.9838 103.482 21.3283C105.136 22.1765 106.273 23.9633 106.338 25.8249C106.409 27.6799 105.415 29.544 103.833 30.5246C102.653 31.2502 101.173 31.5339 100.248 32.5565C98.6165 34.3787 99.8336 37.5207 101.973 38.7061C103.219 39.3949 104.985 40.0725 104.855 41.4927C104.758 42.5315 103.658 43.0995 102.781 43.6618C101.904 44.2175 101.115 45.8786 101.737 46.7162C100.513 46.8037 99.2896 46.9371 98.0853 47.1693C92.2219 48.2849 86.9816 51.4351 81.8796 54.5333C79.6581 55.8863 77.4169 57.2458 75.5161 59.0145C72.1169 62.1849 67.4916 69.4088 62.1415 68.7636C61.0045 68.6211 59.9478 68.1107 58.8976 67.6463C56.0159 66.3659 53.0083 65.3613 49.9336 64.659C47.0561 63.9969 44.1183 63.5976 41.2676 62.8173C39.2511 62.2571 37.2945 61.513 35.3511 60.7492C27.1904 57.5217 19.163 53.8342 11.9034 48.9C8.53267 46.6048 6.96685 43.5142 5.95678 39.5772C5.21865 36.7001 6.06222 34.5855 6.06222 34.5855C7.28926 31.9527 8.57395 29.7016 9.92981 27.7402ZM85.4176 47.8775C85.4848 47.5094 85.493 47.1214 85.3299 46.7853C85.1082 46.3307 84.6226 46.0723 84.1632 45.8535C79.3262 43.5199 74.0449 42.1055 68.6807 41.7101C66.4259 41.5437 64.0651 41.5742 62.0227 42.553C60.369 43.3557 59.3503 44.8646 58.2993 46.2418C57.2482 47.619 56.178 48.8646 54.4212 49.1144C50.3419 49.704 46.8669 50.4603 44.0326 53.7907C43.6164 54.2758 43.2197 54.8268 43.1777 55.4646C43.0664 56.9836 44.8252 57.8584 46.2766 58.3112L57.9602 61.9666C59.5889 62.4792 61.2506 62.992 62.9604 62.959C66.163 62.9054 69.0181 60.9563 71.407 58.8147C73.8026 56.6796 76.0152 54.2413 78.8879 52.825C80.1661 52.1919 81.5486 51.7828 82.7877 51.0771C84.0202 50.3715 85.149 49.2774 85.4176 47.8775Z" fill="#F0ECD9"/>
<path d="M131.156 50.5258C131.083 50.7952 131.049 51.0648 131.048 51.341L130.706 51.3397C122.257 49.5514 113.581 48.4463 104.97 49.2094C96.3657 49.9725 87.7865 52.6826 80.9201 57.9314C78.9215 59.4563 78.0515 61.6038 75.9679 63.0166C74.4249 64.0631 73.1564 65.5579 71.7901 66.8287C70.5558 67.9882 68.3998 69.4204 67.0215 70.4017C63.0449 73.2412 57.4616 70.0562 52.7052 68.9265C50.0511 68.2916 47.3232 68.0247 44.6625 67.3963C40.2542 66.3469 36.1524 64.3252 32.09 62.3234C28.7101 60.6596 25.3367 58.9959 21.9634 57.3256C17.3891 55.0719 11.8462 53.2815 8.32974 49.5848C4.32216 45.3732 2.57082 42.6238 3.87849 32.9864C6.00289 27.9497 9.26325 23.3317 13.2041 19.5582C21.0661 12.0242 31.3819 7.50536 41.9143 4.74352C58.5226 0.386779 76.3902 0.145653 92.7365 5.39737C96.9591 6.82099 101.056 8.48091 104.993 10.5743C112.086 14.3438 118.583 19.2621 124.024 25.176C126.728 28.1132 129.26 31.3129 131.298 34.754C132.285 36.4218 133.359 37.498 134.618 38.371C135.877 39.2506 137.321 39.927 139.073 40.7952C139.723 41.1134 140.399 41.4646 140.804 42.0581C141.484 43.0473 141.184 44.1446 140.411 45.0624C139.624 46.0066 138.352 46.7713 137.161 47.0693C136.542 47.2248 135.884 47.3736 135.239 47.5487L135.18 47.3314C133.427 45.1937 129.858 44.6474 127.715 42.8962C125.801 41.3301 125.088 38.7754 124.196 36.4699C121.697 30.0147 117.096 24.584 111.608 20.4523C110.244 19.4276 108.828 18.4817 107.372 17.6079C105.915 16.7408 104.657 15.6376 103.2 14.8296C99.8673 12.9753 96.0429 12.2898 92.6035 10.6916C91.4418 10.1478 90.3265 9.5056 89.1181 9.09978C87.4961 8.54769 85.7671 8.42929 84.0647 8.2518C81.2382 7.95822 78.4257 7.48053 75.6533 6.81882C74.2146 6.4779 72.7826 6.09097 71.3372 5.76975C70.5159 5.58904 69.6946 5.42806 68.8599 5.31307C68.0975 5.20493 67.335 5.13625 66.5724 5.09389C65.1392 5.0095 63.699 5.02376 62.2653 5.07092C50.0853 5.45866 37.1353 7.61935 26.53 13.8274C24.8624 14.8011 23.2738 15.7488 21.7575 16.723C20.4851 17.5403 19.2586 18.3776 18.0845 19.2742L18.078 19.2742C15.0702 21.5582 12.3834 24.1855 9.92951 27.741C8.57362 29.7025 7.28891 31.9536 6.06185 34.5864C6.06185 34.5864 5.21826 36.7011 5.95641 39.5782C6.9665 43.5153 8.53235 46.606 11.9032 48.9012C19.1629 53.8355 27.1904 57.523 35.3513 60.7507C37.2947 61.5145 39.2513 62.2586 41.2679 62.8187C44.1187 63.5991 47.0565 63.9984 49.9341 64.6605C53.0088 65.3628 56.0165 66.3674 58.8982 67.6478C59.9484 68.1122 61.0051 68.6227 62.1422 68.7651C67.4923 69.4104 72.1177 62.1863 75.517 59.0159C77.4179 57.2472 79.6591 55.8877 81.8806 54.5346C86.9827 51.4364 92.2231 48.2861 98.0866 47.1705C99.2909 46.9383 100.515 46.8049 101.738 46.7174C103.067 46.6238 104.402 46.5894 105.737 46.5748C110.912 46.5287 116.093 46.7523 121.247 47.2324C124.73 47.5613 128.404 48.0949 131.144 50.2824L131.223 50.3091C131.196 50.3813 131.176 50.4536 131.156 50.5258Z" fill="#F0ECD9"/>
<path d="M9.90617 38.5826C9.41624 37.7718 9.45317 36.7592 9.50298 35.8123C9.64525 33.1229 9.78754 30.427 9.9298 27.7377C12.3836 24.1824 15.0704 21.5553 18.078 19.2715L18.0845 19.2715C21.0152 19.7957 22.459 22.1491 24.2973 24.4974C27.961 29.1677 31.6312 33.8446 35.2949 38.5149C36.1454 39.6033 37.0549 40.7379 38.3416 41.2624C39.7137 41.8135 41.2796 41.5761 42.725 41.8973C44.1112 42.2117 45.403 43.111 46.0093 44.4024C47.1568 46.8796 45.4874 48.307 43.8576 49.728C41.9967 51.3519 40.8405 54.3728 38.3748 54.3371C37.2307 54.3196 36.2341 53.5858 35.3691 52.8393C33.9799 51.6502 32.6634 50.343 31.0691 49.4557C29.3501 48.4955 27.3922 48.0737 25.5206 47.4747C20.4573 45.8441 15.945 42.9068 11.4918 39.9961C10.895 39.6058 10.2785 39.1957 9.90617 38.5826Z" fill="#D64B4B"/>
<path d="M103.484 21.3341C102.821 20.9896 102.086 20.7829 101.443 20.3924C100.767 19.9755 100.237 19.3684 99.6672 18.8203C97.5579 16.7865 94.7818 15.454 91.8767 15.0878C89.1689 14.7486 86.4381 15.2249 83.7211 15.5303C81.0107 15.8357 78.1826 15.9696 75.6351 14.9865C73.8756 14.3089 72.2501 12.9873 71.435 11.261C70.7047 9.70603 69.7015 7.35419 71.2917 5.99221L71.3386 5.77534C72.7839 6.09655 74.2159 6.48347 75.6546 6.82438C78.4269 7.48606 81.2394 7.96374 84.0658 8.25731C85.7682 8.4348 87.4971 8.55319 89.1191 9.10526C90.3275 9.51106 91.4428 10.1533 92.6045 10.697C96.0438 12.2952 99.8681 12.9806 103.201 14.8349C104.658 15.6428 105.916 16.746 107.372 17.6132C108.829 18.4869 110.245 19.4328 111.609 20.4574C117.096 24.589 121.697 30.0195 124.196 36.4745C125.088 38.7799 125.801 41.3345 127.715 42.9006C129.858 44.6517 133.427 45.198 135.18 47.3357L135.239 47.5529C133.475 48.0329 131.775 48.7236 131.223 50.3132L131.144 50.2866C128.404 48.0991 124.731 47.5655 121.247 47.2366C116.093 46.7566 110.913 46.533 105.737 46.579C104.402 46.5937 103.067 46.6281 101.739 46.7217C101.117 45.884 101.907 44.223 102.783 43.6673C103.66 43.105 104.761 42.537 104.857 41.4982C104.987 40.078 103.221 39.4004 101.975 38.7117C99.8357 37.5262 98.6186 34.3843 100.25 32.5621C101.175 31.5396 102.655 31.2558 103.835 30.5303C105.418 29.5497 106.411 27.6856 106.34 25.8306C106.275 23.969 105.138 22.1823 103.484 21.3341Z" fill="#D64B4B"/>
<path d="M171.507 70.1133C171.454 70.1722 171.408 70.2313 171.362 70.2969C168.406 66.188 164.183 63.1266 159.655 60.86C155.133 58.5933 150.28 57.0752 145.446 55.5638C140.802 54.1123 136.12 52.654 131.282 52.1423L131.137 52.1615C131.086 51.885 131.054 51.6152 131.055 51.3456C131.056 51.0759 131.09 50.7998 131.163 50.5304C131.183 50.4581 131.203 50.3859 131.23 50.3136C131.782 48.724 133.481 48.0333 135.246 47.5533C135.891 47.3782 136.549 47.2294 137.168 47.0739C138.359 46.7759 139.631 46.0112 140.418 45.067L140.713 45.2655C148.266 45.7875 155.269 49.2212 162.049 52.5948C165.881 54.5037 169.727 56.4652 173.228 58.945C174.94 60.1617 176.565 61.5031 178.026 63.0149C178.844 63.8665 181.108 65.0327 181.321 66.1779C181.064 66.1375 180.802 66.1102 180.545 66.0895C177.127 65.8594 173.615 67.4049 171.507 70.1133Z" fill="#F0ECD9"/>
<path d="M3.88005 32.9803C2.57237 42.6184 4.32373 45.3681 8.33136 49.58C11.8479 53.2769 17.3908 55.0675 21.9652 57.3213C25.3385 58.9918 28.7119 60.6557 32.0919 62.3196C36.1544 64.3215 40.2562 66.3434 44.6645 67.3929C47.3252 68.0213 50.0532 68.2882 52.7073 68.9232C57.4638 70.053 63.0471 73.2382 67.0238 70.3985C68.4021 69.4171 70.5581 67.9848 71.7925 66.8252C73.1588 65.5543 74.4273 64.0594 75.9703 63.0128C78.0539 61.5999 78.9239 59.4523 80.9225 57.9272C87.789 52.678 96.3683 49.9677 104.973 49.2045C113.584 48.4413 122.259 49.5465 130.709 51.3416L131.051 51.3429C131.05 51.606 131.082 51.8758 131.133 52.1522C131.507 54.081 133.057 56.0602 133.182 57.7907C133.232 58.4092 133.092 58.9941 132.662 59.5384C131.334 61.2041 128.707 60.3258 126.757 59.4699C111.475 52.7286 92.0527 57.0027 81.0011 69.5308C77.2754 73.7528 74.1308 79.0162 68.8491 80.9629C64.575 82.545 59.8245 81.5732 55.4033 80.4842C37.9615 76.1619 20.5339 69.9256 6.75078 58.3948C5.21059 57.1063 3.69052 55.7191 2.73092 53.9526C1.8758 52.3707 1.51476 50.567 1.33121 48.7771C0.767519 43.3812 1.76238 37.9714 3.88005 32.9803Z" fill="#F0ECD9"/>
<path opacity="0.2" d="M3.88005 32.9803C2.57237 42.6184 4.32373 45.3681 8.33136 49.58C11.8479 53.2769 17.3908 55.0675 21.9652 57.3213C25.3385 58.9918 28.7119 60.6557 32.0919 62.3196C36.1544 64.3215 40.2562 66.3434 44.6645 67.3929C47.3252 68.0213 50.0532 68.2882 52.7073 68.9232C57.4638 70.053 63.0471 73.2382 67.0238 70.3985C68.4021 69.4171 70.5581 67.9848 71.7925 66.8252C73.1588 65.5543 74.4273 64.0594 75.9703 63.0128C78.0539 61.5999 78.9239 59.4523 80.9225 57.9272C87.789 52.678 96.3683 49.9677 104.973 49.2045C113.584 48.4413 122.259 49.5465 130.709 51.3416L131.051 51.3429C131.05 51.606 131.082 51.8758 131.133 52.1522C131.507 54.081 133.057 56.0602 133.182 57.7907C133.232 58.4092 133.092 58.9941 132.662 59.5384C131.334 61.2041 128.707 60.3258 126.757 59.4699C111.475 52.7286 92.0527 57.0027 81.0011 69.5308C77.2754 73.7528 74.1308 79.0162 68.8491 80.9629C64.575 82.545 59.8245 81.5732 55.4033 80.4842C37.9615 76.1619 20.5339 69.9256 6.75078 58.3948C5.21059 57.1063 3.69052 55.7191 2.73092 53.9526C1.8758 52.3707 1.51476 50.567 1.33121 48.7771C0.767519 43.3812 1.76238 37.9714 3.88005 32.9803Z" fill="#282D35"/>
<path d="M171.508 70.1113C171.44 72.3473 172.181 74.5797 172.021 76.8218C168.272 73.7953 165.235 70.1072 161.037 67.6051C156.91 65.1428 152.519 63.1332 148.021 61.4324C143.195 59.5988 138.389 57.8705 133.187 57.7981C133.063 56.0678 131.512 54.0888 131.139 52.1604L131.283 52.1412C136.121 52.6529 140.804 54.111 145.447 55.5625C150.281 57.0739 155.135 58.5919 159.656 60.8584C164.185 63.125 168.407 66.1862 171.363 70.2949C171.409 70.2293 171.456 70.1703 171.508 70.1113Z" fill="#F0ECD9"/>
<path opacity="0.15" d="M171.508 70.1113C171.44 72.3473 172.181 74.5797 172.021 76.8218C168.272 73.7953 165.235 70.1072 161.037 67.6051C156.91 65.1428 152.519 63.1332 148.021 61.4324C143.195 59.5988 138.389 57.8705 133.187 57.7981C133.063 56.0678 131.512 54.0888 131.139 52.1604L131.283 52.1412C136.121 52.6529 140.804 54.111 145.447 55.5625C150.281 57.0739 155.135 58.5919 159.656 60.8584C164.185 63.125 168.407 66.1862 171.363 70.2949C171.409 70.2293 171.456 70.1703 171.508 70.1113Z" fill="#282D35"/>
<path d="M99.2804 39.5798C99.7765 40.509 99.3376 41.7306 98.5261 42.3983C97.708 43.0726 96.6286 43.3053 95.5761 43.4131C88.445 44.1488 81.6814 40.1507 74.5427 39.5053C72.6891 39.3339 70.795 39.3924 69.0018 38.9055C68.6076 38.7988 68.1612 38.6129 68.0313 38.2244C67.9013 37.849 68.1133 37.4486 68.3251 37.114C71.1288 31.5608 75.8991 27.5474 77.2132 21.2255C77.6222 19.2672 77.6748 17.6298 79.9444 17.3754C80.2536 17.3371 80.5759 17.3252 80.9047 17.3264C83.8243 17.3375 87.4685 18.6602 90.1824 19.144C91.628 19.3995 93.0999 19.6681 94.4124 20.344C95.7183 21.0132 96.8578 22.1685 97.148 23.6099C97.5671 25.6766 96.2047 27.6247 95.2634 29.5152C94.5939 30.8609 94.1013 32.3454 94.1742 33.8517C94.2471 35.3515 94.9512 36.88 96.2369 37.6675C97.2799 38.3028 98.706 38.5056 99.2804 39.5798Z" fill="#D64B4B"/>
<path d="M85.3329 46.7832C85.496 47.1192 85.4879 47.5072 85.4206 47.8753C85.152 49.2752 84.0231 50.3692 82.7906 51.0749C81.5515 51.7805 80.1689 52.1896 78.8907 52.8227C76.0179 54.2389 73.8052 56.6772 71.4096 58.8122C69.0206 60.9538 66.1654 62.9028 62.9627 62.9564C61.2528 62.9894 59.5911 62.4766 57.9623 61.964L46.2784 58.3087C44.8269 57.856 43.068 56.9811 43.1793 55.4622C43.2213 54.8244 43.6181 54.2735 44.0343 53.7884C46.8687 50.458 50.3438 49.7017 54.4233 49.1122C56.18 48.8624 57.2503 47.6168 58.3014 46.2396C59.3525 44.8624 60.3712 43.3536 62.025 42.5509C64.0674 41.5722 66.4283 41.5417 68.6832 41.7081C74.0476 42.1034 79.329 43.5178 84.1661 45.8514C84.6256 46.0702 85.1112 46.3285 85.3329 46.7832Z" fill="#D64B4B"/>
<path d="M3.87998 32.9853C1.76235 37.9759 0.767501 43.3851 1.33118 48.7806C1.51472 50.5703 1.87576 52.3738 2.73086 53.9556C3.69045 55.7219 5.21049 57.1089 6.75066 58.3973C20.5335 69.927 37.9608 76.1627 55.4023 80.4845C59.8235 81.5734 64.5739 82.5452 68.8479 80.9632C74.1295 79.0167 77.274 73.7538 80.9997 69.5323C92.0511 57.0053 111.473 52.7318 126.755 59.4723C128.705 60.3282 131.331 61.2064 132.66 59.5408C133.089 58.9966 133.23 58.4117 133.18 57.7933C133.055 56.063 131.505 54.084 131.131 52.1554C131.079 51.879 131.048 51.6092 131.049 51.3396C131.05 51.0699 131.084 50.7938 131.157 50.5244C131.177 50.4521 131.197 50.3798 131.224 50.3076C131.776 48.718 133.475 48.0273 135.239 47.5473C135.885 47.3722 136.543 47.2234 137.161 47.0679C138.353 46.7699 139.625 46.0052 140.411 45.0611C141.184 44.1432 141.485 43.046 140.805 42.0568C140.399 41.4633 139.724 41.1122 139.074 40.794C137.322 39.9257 135.878 39.2493 134.619 38.3698C133.359 37.4968 132.285 36.4206 131.299 34.7529C129.261 31.3118 126.729 28.1122 124.025 25.1751C118.584 19.2612 112.087 14.3431 104.994 10.5737C101.057 8.4803 96.96 6.82041 92.7375 5.39682C76.3913 0.145205 58.5238 0.386324 41.9156 4.74297C31.3833 7.50476 21.0675 12.0235 13.2056 19.5573C9.26472 23.3308 6.00438 27.9487 3.88001 32.9787" stroke="#282D35" stroke-miterlimit="10"/>
<path d="M140.712 45.2653C148.266 45.7873 155.268 49.221 162.048 52.5947C165.88 54.5035 169.726 56.465 173.228 58.9448C174.939 60.1616 176.564 61.5029 178.025 63.0147C178.843 63.8663 181.107 65.0325 181.32 66.1777C181.064 66.1373 180.801 66.11 180.544 66.0893C177.126 65.8592 173.615 67.4047 171.506 70.1131C171.453 70.1721 171.407 70.2311 171.361 70.2967C168.405 66.1878 164.182 63.1264 159.654 60.8598C155.132 58.5931 150.279 57.075 145.445 55.5636C140.802 54.1121 136.119 52.6538 131.281 52.1421" stroke="#282D35" stroke-miterlimit="10"/>
<path d="M132.996 57.79C133.062 57.7903 133.121 57.7905 133.187 57.7973C138.388 57.8698 143.195 59.5981 148.021 61.4318C152.518 63.1327 156.91 65.1423 161.036 67.6047C165.235 70.1068 168.271 73.795 172.02 76.8217C172.181 74.5795 171.44 72.347 171.508 70.111C171.509 69.9597 171.516 69.815 171.53 69.6704" stroke="#282D35" stroke-miterlimit="10"/>
<path d="M180.531 66.287C181.256 67.4342 181.889 68.6402 182.404 69.8984C182.73 70.6758 183.009 71.5319 182.821 72.3533C182.507 73.6807 181.104 74.4186 179.826 74.907C177.317 75.8643 174.697 76.5449 172.033 76.9228L171.914 76.9421" stroke="#282D35" stroke-miterlimit="10"/>
<path d="M18.0773 19.2711C15.0695 21.5553 12.3826 24.1828 9.92877 27.7385C8.57287 29.7001 7.28814 31.9514 6.06107 34.5844C6.06107 34.5844 5.21748 36.6992 5.95563 39.5765C6.96573 43.5138 8.5316 46.6047 11.9024 48.9C19.1623 53.8346 27.1898 57.5224 35.3508 60.7502C37.2942 61.514 39.2509 62.2582 41.2674 62.8184C44.1183 63.5988 47.0561 63.9981 49.9337 64.6603C53.0084 65.3626 56.0162 66.3673 58.8979 67.6478C59.9482 68.1122 61.0048 68.6227 62.1419 68.7652C67.4921 69.4104 72.1176 62.1859 75.5168 59.0153C77.4178 57.2465 79.659 55.8869 81.8805 54.5338C86.9826 51.4353 92.2231 48.2848 98.0867 47.1692C99.291 46.937 100.515 46.8035 101.738 46.7161C103.067 46.6225 104.402 46.5881 105.737 46.5734C110.912 46.5273 116.093 46.751 121.247 47.231C124.731 47.56 128.405 48.0936 131.144 50.2813" stroke="#282D35" stroke-miterlimit="10"/>
<path d="M135.182 47.3356C133.428 45.1977 129.86 44.6513 127.717 42.9C125.803 41.3338 125.089 38.7788 124.198 36.4732C121.698 30.0174 117.097 24.5863 111.61 20.4542C110.246 19.4294 108.829 18.4834 107.373 17.6096C105.917 16.7424 104.658 15.6391 103.202 14.831C99.8687 12.9765 96.0442 12.291 92.6048 10.6927C91.4431 10.1489 90.3277 9.50656 89.1194 9.10072C87.4973 8.54858 85.7683 8.43017 84.0659 8.25267C81.2394 7.95906 78.4268 7.48133 75.6544 6.81957C74.2157 6.47862 72.7836 6.09166 71.3382 5.77042C70.517 5.58969 69.6956 5.42869 68.8609 5.31369C68.0986 5.20554 67.336 5.13686 66.5734 5.09449C65.1402 5.0101 63.7 5.02436 62.2662 5.07152C50.0861 5.45931 37.136 7.62018 26.5305 13.8288C24.8629 14.8026 23.2743 15.7503 21.7579 16.7246C20.4855 17.542 19.259 18.3793 18.0849 19.276" stroke="#282D35" stroke-miterlimit="10"/>
<path d="M66.5971 4.88436C66.5836 4.95666 66.5768 5.0224 66.5699 5.09472C66.0819 8.73647 67.3948 12.5824 70.0148 15.1705C71.4623 16.6032 73.3972 17.8536 73.7443 19.8609C73.8792 20.644 73.7379 21.4459 73.4654 22.188C72.1823 25.6821 68.3221 27.3708 65.6813 29.9981C62.2151 33.4575 60.3714 39.0079 55.6838 40.4173C54.2091 40.8589 52.6377 40.8069 51.0992 40.755C47.2332 40.6087 43.157 40.4025 39.9104 38.3053C38.2182 37.207 36.8763 35.6695 35.5672 34.1453C30.7827 28.5367 26.1962 22.7579 21.8208 16.8154" stroke="#282D35" stroke-miterlimit="10"/>
<path d="M18.078 19.2715L18.0845 19.2715C21.0152 19.7957 22.459 22.1491 24.2973 24.4974C27.961 29.1677 31.6312 33.8446 35.2949 38.5149C36.1454 39.6033 37.0549 40.7379 38.3416 41.2624C39.7137 41.8135 41.2796 41.5761 42.725 41.8973C44.1112 42.2117 45.403 43.111 46.0093 44.4024C47.1568 46.8796 45.4874 48.307 43.8576 49.728C41.9967 51.3519 40.8405 54.3728 38.3748 54.3371C37.2307 54.3196 36.2341 53.5858 35.3691 52.8393C33.9799 51.6502 32.6634 50.343 31.0691 49.4557C29.3501 48.4955 27.3922 48.0737 25.5206 47.4747C20.4573 45.8441 15.945 42.9068 11.4918 39.9961C10.895 39.6058 10.2785 39.1957 9.90617 38.5826C9.41624 37.7718 9.45317 36.7592 9.50298 35.8123C9.64525 33.1229 9.78754 30.427 9.9298 27.7377C9.92999 27.6916 9.93672 27.6522 9.93691 27.6061" stroke="#282D35" stroke-miterlimit="10"/>
<path d="M44.0343 53.7884C43.6181 54.2735 43.2213 54.8244 43.1793 55.4622C43.068 56.9811 44.8269 57.856 46.2784 58.3087L57.9623 61.964C59.5911 62.4766 61.2528 62.9894 62.9627 62.9564C66.1654 62.9028 69.0206 60.9538 71.4096 58.8122C73.8052 56.6772 76.0179 54.2389 78.8907 52.8227C80.1689 52.1896 81.5515 51.7805 82.7906 51.0749C84.0231 50.3692 85.152 49.2752 85.4206 47.8753C85.4879 47.5072 85.496 47.1192 85.3329 46.7832C85.1112 46.3285 84.6256 46.0702 84.1661 45.8514C79.329 43.5178 74.0476 42.1034 68.6832 41.7081C66.4283 41.5417 64.0674 41.5722 62.025 42.5509C60.3712 43.3536 59.3525 44.8624 58.3014 46.2396C57.2503 47.6168 56.18 48.8624 54.4233 49.1122C50.3438 49.7017 46.8687 50.458 44.0343 53.7884Z" stroke="#282D35" stroke-miterlimit="10"/>
<path d="M68.3251 37.114C68.1133 37.4486 67.9013 37.849 68.0313 38.2244C68.1612 38.6129 68.6076 38.7988 69.0018 38.9055C70.795 39.3924 72.6891 39.3339 74.5427 39.5053C81.6814 40.1507 88.445 44.1488 95.5761 43.4131C96.6286 43.3053 97.708 43.0726 98.5261 42.3983C99.3376 41.7306 99.7765 40.509 99.2804 39.5798C98.706 38.5056 97.2799 38.3028 96.2369 37.6675C94.9512 36.88 94.2471 35.3515 94.1742 33.8517C94.1013 32.3454 94.5939 30.8609 95.2634 29.5152C96.2047 27.6247 97.5671 25.6766 97.148 23.6099C96.8578 22.1685 95.7183 21.0132 94.4124 20.344C93.0999 19.6681 91.628 19.3995 90.1824 19.144C87.4685 18.6602 83.8243 17.3375 80.9047 17.3264C80.5759 17.3252 80.2536 17.3371 79.9444 17.3754C77.6748 17.6298 77.6222 19.2672 77.2132 21.2255C75.8991 27.5474 71.1288 31.5608 68.3251 37.114Z" stroke="#282D35" stroke-miterlimit="10"/>
<path d="M71.2925 5.99221C69.7024 7.3541 70.7056 9.7058 71.4358 11.2607C72.2509 12.9869 73.8763 14.3084 75.6358 14.9859C78.1832 15.9689 81.0112 15.835 83.7215 15.5297C86.4384 15.2243 89.1692 14.748 91.8769 15.0872C94.7818 15.4534 97.5579 16.7859 99.6671 18.8195C100.237 19.3675 100.767 19.9746 101.443 20.3915C102.086 20.782 102.821 20.9887 103.484 21.3332C105.138 22.1813 106.275 23.9679 106.34 25.8293C106.411 27.6842 105.417 29.5482 103.835 30.5287C102.655 31.2542 101.175 31.538 100.25 32.5604C98.6186 34.3825 99.8356 37.5242 101.975 38.7096C103.221 39.3983 104.987 40.0758 104.857 41.4959C104.76 42.5346 103.66 43.1026 102.783 43.6649C101.906 44.2206 101.117 45.8815 101.739 46.7191" stroke="#282D35" stroke-miterlimit="10"/>
<path d="M130.709 51.3428C122.26 49.5477 113.584 48.4425 104.973 49.2057C96.3685 49.9689 87.7892 52.6793 80.9226 57.9289C78.924 59.454 78.054 61.6018 75.9703 63.0147C74.4274 64.0614 73.1588 65.5564 71.7925 66.8273C70.5582 67.987 68.4021 69.4194 67.0238 70.4009C63.0471 73.2407 57.4637 70.0553 52.7072 68.9255C50.0531 68.2905 47.3251 68.0236 44.6644 67.3951C40.2561 66.3455 36.1542 64.3236 32.0917 62.3215C28.7117 60.6575 25.3383 58.9935 21.9649 57.323C17.3905 55.069 11.8475 53.2784 8.33102 49.5812C4.32336 45.3691 2.57199 42.6193 3.87967 32.9806C3.88651 32.9149 3.89993 32.8491 3.90677 32.7834" stroke="#282D35" stroke-miterlimit="10"/>
</svg>
